<svg xmlns="http://www.w3.org/2000/svg" viewBox="0 0 24 24" fill="currentColor">
  <path d="M12 .5C5.73.5.75 5.48.75 11.75c0 4.95 3.2 9.15 7.64 10.63.56.1.76-.24.76-.53 0-.26-.01-.96-.01-1.89-3.11.68-3.77-1.5-3.77-1.5-.51-1.3-1.25-1.65-1.25-1.65-1.02-.7.08-.69.08-.69 1.13.08 1.73 1.16 1.73 1.16 1 1.71 2.62 1.22 3.26.93.1-.72.39-1.22.71-1.5-2.48-.28-5.09-1.24-5.09-5.52 0-1.22.44-2.22 1.15-3-.12-.28-.5-1.4.11-2.92 0 0 .94-.3 3.08 1.15a10.8 10.8 0 0 1 2.8-.38c.95.01 1.9.13 2.8.38 2.14-1.46 3.08-1.15 3.08-1.15.61 1.52.23 2.64.12 2.92.72.78 1.15 1.78 1.15 3 0 4.29-2.62 5.24-5.11 5.52.4.35.76 1.03.76 2.08 0 1.5-.01 2.71-.01 3.08 0 .29.2.64.77.53C19.05 20.9 22.25 16.7 22.25 11.75 22.25 5.48 18.27.5 12 .5z"/>
</svg>